<svg width="176" height="107" viewBox="0 0 176 107" fill="none" xmlns="http://www.w3.org/2000/svg">
<g clip-path="url(#clip0_87_68)">
<path d="M49.7325 82.8411C45.7929 90.1161 37.7518 94.6913 29.0174 93.7893C17.4255 92.5952 9.00212 82.2116 10.1944 70.6015C11.3866 58.9914 21.7538 50.5548 33.3457 51.7489C34.2982 51.8462 35.2248 52.015 36.1319 52.2291L43.9398 48.7312C40.9268 47.1282 37.5704 46.0639 33.9678 45.6875C19.0389 44.1494 5.6846 55.0197 4.14247 69.9785C2.60034 84.9373 13.46 98.3061 28.3954 99.8507C42.0413 101.259 54.3589 92.3031 57.5597 79.3367L49.7325 82.8411Z" fill="black"/>
<path d="M125.854 82.7763C129.768 90.0643 137.789 94.672 146.53 93.8023C158.122 92.6472 166.591 82.2961 165.438 70.686C164.284 59.0759 153.949 50.5938 142.357 51.749C141.405 51.8463 140.478 52.0086 139.571 52.2227L131.776 48.6923C134.796 47.0959 138.159 46.0445 141.761 45.6876C156.697 44.2015 170.012 55.1236 171.496 70.0824C172.98 85.0412 162.075 98.3776 147.139 99.8637C133.487 101.22 121.202 92.2188 118.053 79.2394L125.854 82.7763Z" fill="black"/>
<path d="M88.9596 72.1399C109.318 72.1399 127.403 76.0791 138.82 82.1795C131.051 73.9894 111.657 68.1812 88.9596 68.1812C66.2618 68.1812 46.8686 73.9894 39.0996 82.1795C50.5165 76.0791 68.6009 72.1399 88.9596 72.1399Z" fill="#DD8C0F"/>
<path d="M71.9444 46.3043C71.9444 46.3043 64.6549 55.5781 50.0759 55.5781H36.5208V65.2738H50.0759C50.0759 65.2738 74.2576 65.2868 81.1712 48.9846C81.1712 48.9846 86.3484 10.4487 138.826 19.1189C138.82 19.1189 93.0612 -10.6364 71.9444 46.3043Z" fill="black"/>
<path d="M166.001 38.5294C166.001 38.5294 162.483 16.1659 124.979 0C124.979 0 143.336 14.9199 140.822 22.6686C140.822 22.6686 106.565 28.7819 109.636 54.0398C109.636 54.0398 89.5687 59.3095 83.5039 49.8799C83.5039 49.8799 53.5814 6.65196 13.9915 22.1559C13.9915 22.1559 52.5965 20.1765 80.2447 64.365C80.2447 64.365 94.3182 64.9036 101.737 65.2865C101.737 65.2865 113.692 66.1237 122.245 70.0759C122.245 70.0759 120.969 66.3833 120.755 61.3343L142.532 74.0606L126.23 43.7666C132.074 36.9459 141.671 30.4562 166.001 38.5294Z" fill="#DD8C0F"/>
</g>
<g filter="url(#filter0_f_87_68)">
<ellipse cx="88" cy="101.5" rx="84" ry="1.5" fill="#333333" fill-opacity="0.5"/>
</g>
<defs>
<filter id="filter0_f_87_68" x="0" y="96" width="176" height="11" filterUnits="userSpaceOnUse" color-interpolation-filters="sRGB">
<feFlood flood-opacity="0" result="BackgroundImageFix"/>
<feBlend mode="normal" in="SourceGraphic" in2="BackgroundImageFix" result="shape"/>
<feGaussianBlur stdDeviation="2" result="effect1_foregroundBlur_87_68"/>
</filter>
<clipPath id="clip0_87_68">
<rect width="167.619" height="100" fill="white" transform="translate(4)"/>
</clipPath>
</defs>
</svg>
