<svg width="512" height="313" viewBox="0 0 512 313" fill="none" xmlns="http://www.w3.org/2000/svg">
<g clip-path="url(#clip0_87_42)">
<path d="M141.567 248.523C129.716 270.348 105.528 284.074 79.2545 281.368C44.3852 277.786 19.047 246.635 22.6333 211.805C26.2197 176.974 57.4051 151.664 92.2744 155.247C95.1396 155.539 97.9268 156.045 100.655 156.687L124.142 146.194C115.079 141.385 104.982 138.192 94.1455 137.063C49.2384 132.448 9.06766 165.059 4.42883 209.936C-0.210013 254.812 32.4568 294.918 77.3833 299.552C118.431 303.777 155.483 276.909 165.112 238.01L141.567 248.523Z" fill="black"/>
<path d="M370.546 248.329C382.319 270.193 406.448 284.016 432.742 281.407C467.611 277.941 493.086 246.888 489.616 212.058C486.147 177.228 455.059 151.781 420.19 155.247C417.324 155.539 414.537 156.026 411.808 156.668L388.361 146.077C397.444 141.288 407.559 138.134 418.396 137.063C463.323 132.604 503.377 165.371 507.84 210.247C512.304 255.124 479.5 295.133 434.574 299.591C393.507 303.66 356.552 276.657 347.079 237.718L370.546 248.329Z" fill="black"/>
<path d="M259.565 216.419C320.805 216.419 375.205 228.237 409.548 246.538C386.178 221.968 327.842 204.543 259.565 204.543C191.288 204.543 132.952 221.968 109.582 246.538C143.925 228.237 198.324 216.419 259.565 216.419Z" fill="black"/>
<path d="M208.382 138.913C208.382 138.913 186.455 166.734 142.6 166.734H101.825V195.821H142.6C142.6 195.821 215.34 195.86 236.137 146.953C236.137 146.953 251.71 31.3455 409.567 57.3563C409.548 57.3563 271.903 -31.9097 208.382 138.913Z" fill="black"/>
<path d="M491.312 115.588C491.312 115.588 480.728 48.4976 367.915 0C367.915 0 423.133 44.7596 415.57 68.0057C415.57 68.0057 312.522 86.3456 321.76 162.12C321.76 162.12 261.397 177.928 243.154 149.64C243.154 149.64 153.144 19.9559 34.055 66.4676C34.055 66.4676 150.182 60.5296 233.35 193.095C233.35 193.095 275.684 194.711 298.001 195.86C298.001 195.86 333.962 198.371 359.69 210.228C359.69 210.228 355.85 199.15 355.207 184.003L420.716 222.182L371.677 131.3C389.257 110.838 418.124 91.3687 491.312 115.588Z" fill="black"/>
</g>
<g filter="url(#filter0_f_87_42)">
<ellipse cx="256" cy="302.5" rx="252" ry="6.5" fill="#333333" fill-opacity="0.5"/>
</g>
<defs>
<filter id="filter0_f_87_42" x="0" y="292" width="512" height="21" filterUnits="userSpaceOnUse" color-interpolation-filters="sRGB">
<feFlood flood-opacity="0" result="BackgroundImageFix"/>
<feBlend mode="normal" in="SourceGraphic" in2="BackgroundImageFix" result="shape"/>
<feGaussianBlur stdDeviation="2" result="effect1_foregroundBlur_87_42"/>
</filter>
<clipPath id="clip0_87_42">
<rect width="504.211" height="300" fill="white" transform="translate(4)"/>
</clipPath>
</defs>
</svg>
