<?xml version="1.0" encoding="utf-8"?>
<!-- Generator: Adobe Illustrator 25.2.1, SVG Export Plug-In . SVG Version: 6.00 Build 0)  -->
<svg version="1.1" id="圖層_1" xmlns="http://www.w3.org/2000/svg" xmlns:xlink="http://www.w3.org/1999/xlink" x="0px" y="0px"
	 viewBox="0 0 595.28 841.89" style="enable-background:new 0 0 595.28 841.89;" xml:space="preserve">
<style type="text/css">
	.st0{fill:#F7F8F8;}
	.st1{fill:#DD8C0F;}
</style>
<g>
	<path class="st0" d="M238.87,471.56c-6.08,11.21-18.49,18.26-31.97,16.87c-17.89-1.84-30.89-17.84-29.05-35.73
		c1.84-17.89,17.84-30.89,35.73-29.05c1.47,0.15,2.9,0.41,4.3,0.74l12.05-5.39c-4.65-2.47-9.83-4.11-15.39-4.69
		c-23.05-2.38-43.65,14.38-46.03,37.43c-2.38,23.05,14.38,43.65,37.43,46.03c21.06,2.17,40.07-11.63,45.01-31.61L238.87,471.56z"/>
	<path class="st0" d="M356.35,471.45c6.04,11.23,18.42,18.33,31.91,16.99c17.89-1.78,30.96-17.73,29.18-35.62
		c-1.78-17.89-17.73-30.96-35.62-29.18c-1.47,0.15-2.9,0.4-4.3,0.73l-12.03-5.44c4.66-2.46,9.85-4.08,15.41-4.63
		c23.05-2.29,43.6,14.54,45.89,37.59c2.29,23.05-14.54,43.6-37.59,45.89c-21.07,2.09-40.03-11.78-44.89-31.78L356.35,471.45z"/>
	<path class="st1" d="M299.41,455.06c31.42,0,59.33,6.07,76.95,15.47c-11.99-12.62-41.92-21.57-76.95-21.57s-64.96,8.95-76.95,21.57
		C240.08,461.13,267.99,455.06,299.41,455.06z"/>
	<path class="st0" d="M273.15,415.25c0,0-11.25,14.29-33.75,14.29h-20.92v14.94h20.92c0,0,37.32,0.02,47.99-25.1
		c0,0,7.99-59.38,88.98-46.02C376.36,373.36,305.74,327.51,273.15,415.25z"/>
	<path class="st1" d="M418.31,403.27c0,0-5.43-34.46-63.31-59.37c0,0,28.33,22.99,24.45,34.93c0,0-52.87,9.42-48.13,48.34
		c0,0-30.97,8.12-40.33-6.41c0,0-46.18-66.61-107.28-42.72c0,0,59.58-3.05,102.25,65.04c0,0,21.72,0.83,33.17,1.42
		c0,0,18.45,1.29,31.65,7.38c0,0-1.97-5.69-2.3-13.47l33.61,19.61l-25.16-46.68C365.95,400.83,380.76,390.83,418.31,403.27z"/>
</g>
</svg>
